<svg id="Layer_1" data-name="Layer 1" xmlns="http://www.w3.org/2000/svg" width="962.67002" height="157.51367" viewBox="0 0 962.67002 157.51367">
  <defs>
    <style>
      .cls-1 {
        fill: transparent;
      }
    </style>
  </defs>
  <title>MECANA 09.16 Final (Just Mecena)</title>
  <g>
    <path d="M49.81417,449.07465V574.84341H31.114v-156.023H66.6058c18.28559,39.48263,36.73233,79.31323,55.98581,120.88562,19.59119-41.25245,39.3447-80.4516,57.09965-121.05294h28.37448V574.63837a27.6785,27.6785,0,0,1-4.30466.71306c-7.379.07156-14.7591.03338-23.2381.03338.67012-43.80317,1.36577-86.88067-.07359-130.1409-21.08827,42.83465-42.64262,85.26093-61.14722,129.0582-7.17208,1.70289-7.05478,1.64694-10.03874-4.60872Q81.14961,510.755,52.93007,451.86676c-.50951-1.06446-1.18879-2.04776-1.78886-3.06888Q50.47767,448.93621,49.81417,449.07465Z" transform="translate(-31.11396 -417.88131)"/>
    <path d="M793.27571,418.33727H815.612c1.41732,5.32115,1.84989,145.49457.37943,156.45318-9.9112,0-19.97665.237-30.01172-.2093-1.90086-.08452-3.97329-2.64012-5.47178-4.46245q-22.407-27.24889-44.61561-54.66057c-15.70355-19.45811-31.244-39.04762-46.87677-58.56295-1.16186-1.45024-2.49195-2.76572-4.89765-5.414V574.339H661.02257V418.04453c8.08026,0,15.945-.35975,23.73592.23869,2.09484.16087,4.29142,2.98065,5.88875,5.01391,14.37628,18.29869,28.488,36.80641,42.9548,55.03256,17.39112,21.9106,35.04286,43.61445,52.61625,65.38014,1.67116,2.06989,3.58643,3.94273,6.76995,7.41308.57186-23.59219.20513-45.41963.27278-67.236C793.32831,462.17952,793.27571,440.47168,793.27571,418.33727Z" transform="translate(-31.11396 -417.88131)"/>
    <path d="M950.3919,528.58422H883.14981c-6.36948,15.18346-12.76244,30.42279-19.25643,45.90325H845.28962c.50648-5.3304,63.22736-144.57538,70.00655-155.51894h20.42527c19.27129,51.63,38.531,103.22907,58.06254,155.55622H968.90506Q959.621,551.48619,950.3919,528.58422Zm-6.44067-14.80495c-9.08632-21.84087-17.77933-42.73643-27.15957-65.28374-9.53466,22.54867-18.413,43.54517-27.6051,65.28374Z" transform="translate(-31.11396 -417.88131)"/>
    <path d="M531.91141,573.86374V419.91819c5.42816-1.5081,80.80646-2.04986,94.07266-.62773.74906,7.35541.31377,14.84458.266,23.99211-2.6385-1.64776-4.79726-2.21735-5.39878-3.511-2.19042-4.71075-6.01208-5.93908-10.70116-6.66747-17.48769-2.71612-31.8637-3.10443-49.09194-.71569-.3923,18.18589-.78842,36.54706-1.20267,55.74844h54.33383v12.19955H559.94582c-.99273,20.145-.53032,39.5638-.18826,59.15712,1.55163.46458,2.69082,1.10872,3.82448,1.09938q23.001-.19017,46.00047-.55617a41.872,41.872,0,0,0,4.43089-.43076c5.81412-.70853,10.42221-2.64167,11.06318-9.55526.33916-3.6597,2.13174-6.12625,6.84747-4.19973v27.77215C626.41981,575.263,539.622,575.51984,531.91141,573.86374Z" transform="translate(-31.11396 -417.88131)"/>
    <path d="M246.1871,419.11381h93.56164v22.35024c-2.37524,1.11752-4.01556.6163-4.95-1.64031-1.973-4.765-5.90779-6.01191-10.62407-6.71236-15.98386-2.37433-31.95593-3.20392-48.81181-.85263-1.47392,18.32463-1.07481,36.6849-1.30542,55.868h54.25929v11.36235c-5.53046,1.88979-11.45675.66662-17.25273.86713-6.17949.214-12.37213.04824-18.559.04824H274.2284c-1.55662,20.12719-1.011,39.53814-.23415,59.23085a16.1627,16.1627,0,0,0,3.72862.96734q22.26577-.14908,44.53037-.45433c1.23333-.015,2.46411-.21683,3.6968-.32339,6.81392-.58891,12.76878-2.1078,13.4053-10.64756.29528-3.963,2.7057-4.91424,6.61279-3.16973v28.3763h-99.781Z" transform="translate(-31.11396 -417.88131)"/>
    <path d="M496.80653,426.98558v22.19934c-3.60167,1.64059-5.76606.7429-7.95475-2.09637a22.882,22.882,0,0,0-7.19934-6.16743c-19.2177-10.109-39.19235-11.64719-59.47361-3.75456-15.70355,6.11111-26.05049,17.64449-31.012,33.76782a76.72654,76.72654,0,0,0-.35123,45.3557c7.74364,25.858,29.90861,42.85287,57.76528,44.7939,17.94648,1.25037,27.21027-.516,47.98168-9.29045v11.7658c-16.88835,8.90087-35.08983,12.26938-54.21331,11.73089-16.36818-.46086-31.92083-3.87608-45.97925-12.539-22.76441-14.02786-34.73108-34.53148-36.07114-61.23-.57667-11.48922.57077-22.76877,4.78529-33.54945,6.75325-17.27422,18.15006-30.68887,34.78232-38.97018C431.639,413.18207,463.91273,415.84287,496.80653,426.98558Z" transform="translate(-31.11396 -417.88131)"/>
    <path class="cls-1" d="M943.95123,513.77927H889.18656c9.19215-21.73857,18.07044-42.73507,27.6051-65.28374C926.1719,471.04284,934.86491,491.9384,943.95123,513.77927Z" transform="translate(-31.11396 -417.88131)"/>
  </g>
</svg>
