<svg id="Layer_1" data-name="Layer 1" xmlns="http://www.w3.org/2000/svg" width="781.42773" height="687.99983" viewBox="0 0 781.42773 687.99983">
  <title>MECENA</title>
  <path d="M0,683.93025V0C6.32053,1.74493,12.42832,3.43472,18.5381,5.11729Q98.27285,27.07555,178.00879,49.02968c5.18793,1.42828,5.152,1.41546,5.14709,6.90127q-.05745,64.40264-.08358,128.80524-.01653,168.19116-.006,336.38242-.00241,46.56207-.04864,93.12414c-.00259,4.386-.00452,4.39374-4.32239,5.93445q-87.27376,31.14093-174.549,62.27753C2.93086,682.88844,1.71483,683.32,0,683.93025Z"/>
  <path d="M781.42773,4.07378v683.926c-7.6347-2.803-14.949-5.46521-22.24694-8.17138q-78.11673-28.96609-156.22773-57.94758c-4.328-1.6054-4.33355-1.60717-4.33343-5.9198q.0075-255.17074.01349-510.34146c0-16.53265-.05493-33.0653-.07324-49.59794-.00385-3.41413.01178-3.44135,3.30432-4.30753Q688.13214,29.01914,774.40411,6.339A32.81173,32.81173,0,0,0,781.42773,4.07378Z"/>
  <path d="M308.67627,329.66753q0-119.63727.00024-239.27459c0-4.8643.00351-4.94683,4.673-4.845,35.23157.76825,70.46649,1.10488,105.70505.76125,16.52941-.16116,33.05688-.51083,49.58526-.77294a14.77188,14.77188,0,0,0,2.17218-.01931c2.4502-.40966,3.03974.8329,2.81842,2.96061a25.335,25.335,0,0,0-.01428,2.60872q0,238.622-.00012,477.244c0,5.67389-.00055,5.67419-5.734,5.67425q-76.78537,0-153.5708-.00061c-6.959-.00018-5.61243.13812-5.61456-5.49719Q308.65154,449.08708,308.67627,329.66753Z"/>
</svg>
