<svg id="Layer_1" data-name="Layer 1" xmlns="http://www.w3.org/2000/svg" width="934.88777" height="155.82657" viewBox="0 0 934.88777 155.82657">
  <title>MECANA 09.16 Final</title>
  <g>
    <path d="M297.39879,431.21745v91.07466H283.85715v-112.983h25.7012c13.24139,28.5911,26.59948,57.43417,40.54176,87.53856,14.18684-29.87271,28.49122-58.25853,41.34836-87.65972h20.5472V522.14363a20.04325,20.04325,0,0,1-3.11719.51636c-5.34348.05181-10.68771.02417-16.82773.02417.48526-31.71979.989-62.91409-.05329-94.24071-15.27094,31.01844-30.87938,61.74116-44.27937,93.45668-5.19362,1.23314-5.10868,1.19262-7.26949-3.33738q-20.35845-42.67989-40.79345-85.32341c-.369-.77082-.86086-1.48287-1.29539-2.22231Q297.87926,431.11722,297.39879,431.21745Z" transform="translate(-46.08083 -390.14964)"/>
    <path d="M183.47036,398.9866l41.40046-7.89769v154.8873c-14.01735-2.86148-27.58748-6.346-41.40046-9.69286Z" transform="translate(-46.08083 -390.14964)"/>
    <path d="M87.47644,535.42735c-13.67266,3.24971-27.32892,6.49548-41.39561,9.83884V390.14964c13.79648,2.63449,27.4202,5.236,41.39561,7.90465Z" transform="translate(-46.08083 -390.14964)"/>
    <path d="M835.77179,408.95917h16.17468c1.02634,3.85328,1.33958,105.359.27476,113.29459-7.17713,0-14.466.17159-21.7328-.15156-1.3765-.06121-2.87724-1.91183-3.96236-3.23146q-16.22586-19.73211-32.30811-39.58211c-11.37163-14.09046-22.62518-28.27608-33.94552-42.408-.84135-1.05018-1.80452-2.00278-3.5466-3.92052v88.96674H740.00151V408.74719c5.85127,0,11.54644-.26051,17.18822.17284,1.517.1165,3.1076,2.15842,4.2643,3.63079,10.41049,13.25088,20.62942,26.65314,31.10545,39.85148,12.59366,15.86643,25.37606,31.58313,38.10172,47.34462,1.21016,1.4989,2.59709,2.8551,4.90242,5.36814.41411-17.08414.14854-32.89034.19753-48.68854C835.80988,440.70726,835.77179,424.98767,835.77179,408.95917Z" transform="translate(-46.08083 -390.14964)"/>
    <path d="M117.00827,409.29586h37.07855V519.977c-12.29337.55438-24.517.18551-37.07855.25808Z" transform="translate(-46.08083 -390.14964)"/>
    <path d="M949.54649,488.7938H900.85355c-4.61242,10.995-9.24184,22.03048-13.94442,33.24056H873.43734c.36676-3.86,45.78569-104.69336,50.6948-112.61807H938.923c13.95518,37.38758,27.902,74.75269,42.04562,112.64506H962.95268Q956.22968,505.37813,949.54649,488.7938Zm-4.664-10.7209c-6.5798-15.81593-12.87479-30.94732-19.66743-47.27481-6.90447,16.32847-13.33363,31.53295-19.99007,47.27481Z" transform="translate(-46.08083 -390.14964)"/>
    <path d="M646.50648,521.58269V410.104c3.93076-1.09208,58.51548-1.48439,68.12212-.45456.54242,5.32637.22721,10.7496.1926,17.37373-1.91064-1.19321-3.4739-1.60568-3.90949-2.54245-1.58617-3.41126-4.35361-4.30075-7.74917-4.8282a114.767,114.767,0,0,0-35.54962-.51827c-.28409,13.1692-.57093,26.46533-.87091,40.36988h39.34551v8.83423h-39.2801c-.71888,14.58791-.384,28.64988-.13633,42.83826a11.17617,11.17617,0,0,0,2.76947.79611q16.656-.13772,33.311-.40275a30.3212,30.3212,0,0,0,3.20861-.31193c4.21025-.51308,7.54717-1.913,8.01132-6.91938.24561-2.65015,1.54369-4.43629,4.95856-3.04121v20.111C714.94414,522.596,652.09007,522.78194,646.50648,521.58269Z" transform="translate(-46.08083 -390.14964)"/>
    <path d="M439.601,409.5215h67.75207v16.18479c-1.72.80924-2.90783.44629-3.58449-1.18783-1.42877-3.45053-4.27809-4.35348-7.69336-4.86071a121.99145,121.99145,0,0,0-35.34676-.61742c-1.06733,13.26966-.77832,26.56514-.94531,40.45643h39.29152v8.228c-4.00484,1.36848-8.29633.48273-12.49345.62793-4.47484.155-8.9592.03493-13.43936.03493H459.90694c-1.12721,14.575-.73208,28.6313-.16955,42.89165a11.70424,11.70424,0,0,0,2.70006.70049q16.12362-.108,32.24638-.329c.89311-.01084,1.78437-.157,2.677-.23418,4.93426-.42645,9.24644-1.52635,9.70737-7.71036.21382-2.86982,1.95931-3.55862,4.78861-2.29534v20.54852H439.601Z" transform="translate(-46.08083 -390.14964)"/>
    <path d="M621.08549,415.22179v16.07552c-2.60812,1.188-4.17545.538-5.76038-1.51808a16.56982,16.56982,0,0,0-5.21335-4.46611c-13.91638-7.32035-28.3809-8.43423-43.06744-2.71884-11.37163,4.42533-18.8643,12.77715-22.45713,24.45276a55.561,55.561,0,0,0-.25434,32.844c5.6075,18.72488,21.65813,31.03164,41.83036,32.43723,12.99583.90544,19.70414-.37366,34.74563-6.72763v8.52013c-12.22959,6.44551-25.41008,8.8848-39.25823,8.49485-11.85291-.33373-23.11526-2.80683-33.29558-9.08-16.4847-10.15819-25.15029-25.00576-26.12069-44.33933-.41759-8.31984.41332-16.48785,3.46524-24.29462,4.89033-12.509,13.14325-22.22315,25.18739-28.22C573.89481,405.22607,597.26566,407.15287,621.08549,415.22179Z" transform="translate(-46.08083 -390.14964)"/>
  </g>
</svg>
