{
  "accessors": [
    {
      "bufferView": 2,
      "componentType": 5126,
      "count": 211,
      "max": [
        3.4784500598907471,
        4.8159399032592773,
        0.36529999971389771
      ],
      "min": [
        -3.0670199394226074,
        -2.347520112991333,
        -0.35719001293182373
      ],
      "type": "VEC3"
    },
    {
      "bufferView": 2,
      "byteOffset": 2532,
      "componentType": 5126,
      "count": 211,
      "max": [
        0.73288631439208984,
        0.7446441650390625,
        0.9484705924987793
      ],
      "min": [
        -0.73916935920715332,
        -0.7446441650390625,
        -0.92506247758865356
      ],
      "type": "VEC3"
    },
    {
      "bufferView": 3,
      "componentType": 5126,
      "count": 211,
      "max": [
        1,
        0.93961799144744873,
        0.82774388790130615,
        1
      ],
      "min": [
        -1,
        -0.99972689151763916,
        -0.82229328155517578,
        -1
      ],
      "type": "VEC4"
    },
    {
      "bufferView": 1,
      "componentType": 5126,
      "count": 211,
      "max": [
        0.97425001859664917,
        0.98199999332427979
      ],
      "min": [
        0.5520700216293335,
        0.011760000139474869
      ],
      "type": "VEC2"
    },
    {
      "bufferView": 0,
      "componentType": 5125,
      "count": 534,
      "max": [
        210
      ],
      "min": [
        0
      ],
      "type": "SCALAR"
    }
  ],
  "asset": {
    "extras": {
      "author": "Oakieland (https://sketchfab.com/Oakieland)",
      "license": "CC-BY-4.0 (http://creativecommons.org/licenses/by/4.0/)",
      "source": "https://sketchfab.com/3d-models/musical-note-1ab6d5667ade42929b8b9aef17d63c7e",
      "title": "Musical Note"
    },
    "generator": "Sketchfab-6.36.0",
    "version": "2.0"
  },
  "bufferViews": [
    {
      "buffer": 0,
      "byteLength": 2136,
      "byteOffset": 0,
      "name": "floatBufferViews",
      "target": 34963
    },
    {
      "buffer": 0,
      "byteLength": 1688,
      "byteOffset": 2136,
      "byteStride": 8,
      "name": "floatBufferViews",
      "target": 34962
    },
    {
      "buffer": 0,
      "byteLength": 5064,
      "byteOffset": 3824,
      "byteStride": 12,
      "name": "floatBufferViews",
      "target": 34962
    },
    {
      "buffer": 0,
      "byteLength": 3376,
      "byteOffset": 8888,
      "byteStride": 16,
      "name": "floatBufferViews",
      "target": 34962
    }
  ],
  "buffers": [
    {
      "byteLength": 12264,
      "uri": "note.bin"
    }
  ],
  "materials": [
    {
      "doubleSided": true,
      "name": "Material.002",
      "pbrMetallicRoughness": {
        "baseColorFactor": [
          0.80000007149999997,
          0.74558877940000001,
          0.0029295037999999998,
          1
        ],
        "metallicFactor": 1,
        "roughnessFactor": 0.59999999999999998
      }
    }
  ],
  "meshes": [
    {
      "name": "pCylinder15.002_0",
      "primitives": [
        {
          "attributes": {
            "NORMAL": 1,
            "POSITION": 0,
            "TANGENT": 2,
            "TEXCOORD_0": 3
          },
          "indices": 4,
          "material": 0,
          "mode": 4
        }
      ]
    }
  ],
  "nodes": [
    {
      "children": [
        1
      ],
      "name": "RootNode (gltf orientation matrix)",
      "rotation": [
        -0.70710678118654746,
        -0,
        -0,
        0.70710678118654757
      ]
    },
    {
      "children": [
        2
      ],
      "name": "RootNode (model correction matrix)"
    },
    {
      "children": [
        3,
        5
      ],
      "name": "Root"
    },
    {
      "children": [
        4
      ],
      "matrix": [
        -0.29086000000000006,
        0.95517000000000007,
        -0.05519000000000001,
        0,
        -0.77110000000000001,
        -0.19988000000000003,
        0.60452000000000006,
        0,
        0.56639000000000006,
        0.21839000000000003,
        0.7946700000000001,
        0,
        4.0762500000000008,
        1.00545,
        5.9038600000000008,
        1
      ],
      "name": "Lamp"
    },
    {
      "name": "Lamp"
    },
    {
      "children": [
        6
      ],
      "matrix": [
        1,
        0,
        0,
        0,
        0,
        -0,
        1,
        0,
        0,
        -1,
        -0,
        0,
        0.025890000000000003,
        0.0040600000000000011,
        2.3562199999999995,
        1
      ],
      "name": "pCylinder15.002"
    },
    {
      "mesh": 0,
      "name": "pCylinder15.002_0"
    }
  ],
  "scene": 0,
  "scenes": [
    {
      "name": "OSG_Scene",
      "nodes": [
        0
      ]
    }
  ]
}

